<svg height="50pt" viewBox="-35 0 512 512.00001" width="50pt" xmlns="http://www.w3.org/2000/svg"><path d="m412.503906 424.539062v-35.671874c17.390625-6.246094 29.863282-22.898438 29.863282-42.414063 0-24.832031-20.207032-45.046875-45.046876-45.046875-19.519531 0-36.171874 12.472656-42.414062 29.863281h-91.308594c-4.546875-12.644531-14.585937-22.6875-27.230468-27.230469v-30.96875c127.804687-.050781 120.179687.128907 122.210937-.140624 45.167969-6.226563 79.230469-45.652344 79.230469-91.722657 0-51.875-43.316406-94.070312-96.011719-91.761719-17.835937-53.480468-67.824219-89.445312-124.027344-89.445312-64.839843 0-118.324219 47.105469-128.800781 108.515625-45.59375-1.304687-84.414062 35.605469-84.414062 82.257813 0 45.378906 36.917968 82.296874 82.289062 82.296874h119.15625v30.96875c-12.644531 4.542969-22.6875 14.585938-27.230469 27.230469h-91.308593c-6.246094-17.390625-22.898438-29.863281-42.414063-29.863281-24.84375 0-45.046875 20.214844-45.046875 45.046875 0 19.515625 12.472656 36.167969 29.863281 42.414063v35.671874c-17.390625 6.246094-29.863281 22.898438-29.863281 42.414063 0 24.832031 20.203125 45.046875 45.046875 45.046875 24.839844 0 45.046875-20.214844 45.046875-45.046875 0-19.515625-12.472656-36.167969-29.863281-42.414063v-35.671874c12.644531-4.535157 22.683593-14.578126 27.230469-27.230469h91.308593c4.542969 12.652343 14.585938 22.695312 27.230469 27.230469v35.671874c-17.390625 6.246094-29.863281 22.898438-29.863281 42.414063 0 24.832031 20.203125 45.046875 45.046875 45.046875 24.839844 0 45.046875-20.214844 45.046875-45.046875 0-19.515625-12.472657-36.167969-29.863281-42.414063v-35.671874c12.644531-4.535157 22.683593-14.578126 27.230468-27.230469h91.308594c4.542969 12.652343 14.585938 22.695312 27.230469 27.230469v35.671874c-17.394531 6.246094-29.863281 22.898438-29.863281 42.414063 0 24.832031 20.203124 45.046875 45.046874 45.046875 24.839844 0 45.046876-20.214844 45.046876-45.046875 0-19.515625-12.472657-36.167969-29.863282-42.414063zm-15.183594 27.738282c8.097657 0 14.675782 6.578125 14.675782 14.675781 0 8.089844-6.578125 14.679687-14.675782 14.679687-8.097656 0-14.679687-6.589843-14.679687-14.679687 0-8.097656 6.582031-14.675781 14.679687-14.675781zm0-91.148438c-8.097656 0-14.679687-6.578125-14.679687-14.675781 0-8.089844 6.582031-14.679687 14.679687-14.679687 8.097657 0 14.675782 6.589843 14.675782 14.679687 0 8.097656-6.578125 14.675781-14.675782 14.675781zm-190.816406-14.675781c0-8.089844 6.582032-14.679687 14.679688-14.679687s14.675781 6.589843 14.675781 14.679687c0 8.097656-6.578125 14.675781-14.675781 14.675781s-14.679688-6.578125-14.679688-14.675781zm-107.613281-206.171875c9.261719 2.195312 18.269531-4.589844 18.675781-14.109375 2.367188-53.722656 46.390625-95.804687 100.203125-95.804687 46.878907 0 88.101563 33.195312 98.03125 78.917968 1.761719 8.117188 9.71875 13.3125 17.855469 11.660156 38.429688-7.742187 73.785156 21.734376 73.785156 60.261719 0 30.640625-22.300781 56.902344-52.039062 61.496094h-268.558594c-28.628906 0-51.921875-23.292969-51.921875-51.929687 0-33.273438 31.109375-58.289063 63.96875-50.492188zm-53.84375 220.847656c-8.097656 0-14.679687-6.578125-14.679687-14.675781 0-8.089844 6.582031-14.679687 14.679687-14.679687s14.675781 6.589843 14.675781 14.679687c0 8.097656-6.578125 14.675781-14.675781 14.675781zm0 91.148438c8.097656 0 14.675781 6.578125 14.675781 14.675781 0 8.089844-6.578125 14.679687-14.675781 14.679687s-14.679687-6.589843-14.679687-14.679687c0-8.097656 6.582031-14.675781 14.679687-14.675781zm176.136719 29.355468c-8.097656 0-14.679688-6.589843-14.679688-14.679687 0-8.097656 6.582032-14.675781 14.679688-14.675781s14.675781 6.578125 14.675781 14.675781c0 8.089844-6.578125 14.679687-14.675781 14.679687zm0 0"/></svg>